<svg id="Layer_1" data-name="Layer 1" xmlns="http://www.w3.org/2000/svg" viewBox="0 0 300 300"><defs><style>.cls-1{fill-rule:evenodd;}</style></defs><g id="Vuong"><g id="V_icon" data-name="V icon"><path d="M94,79.57a3.22,3.22,0,0,1,1.57.46,16.75,16.75,0,0,1,2.08,1.34,8.06,8.06,0,0,0,3.15,1.54,15,15,0,0,1,5.32,2.52,13.78,13.78,0,0,1,2.77,2.73c1.36,1.79,2.75,3.56,4,5.4,5.37,7.61,10.7,15.24,16.07,22.85q5.33,7.55,10.69,15.06a128.23,128.23,0,0,0,8.17,10,16.94,16.94,0,0,0,1.61,1.56c.41.35.64.33,1.07,0a5.17,5.17,0,0,0,.71-.62c.42-.42.83-.84,1.22-1.29a132,132,0,0,0,8.69-10.77l15.68-22.26q5.78-8.18,11.57-16.33c.86-1.22,1.8-2.39,2.71-3.58a14,14,0,0,1,7.41-5,12.11,12.11,0,0,0,4.5-2.23,7.53,7.53,0,0,1,1.74-1,3.55,3.55,0,0,1,1.24-.32,1.33,1.33,0,0,1,1.56,1.59,7.68,7.68,0,0,1-.49,1.94c-.66,1.73-1.36,3.45-2.08,5.15-10,23.79-20.68,47.27-32.21,70.36-2.2,4.42-4.36,8.85-6.78,13.15-1.63,2.89-3.34,5.73-5.22,8.46a54.18,54.18,0,0,1-4.05,5.24,25.09,25.09,0,0,1-3.33,3.19,9.89,9.89,0,0,1-2.23,1.33,2.92,2.92,0,0,1-2.3,0,9.68,9.68,0,0,1-2.23-1.33,24.38,24.38,0,0,1-3.65-3.53,60,60,0,0,1-4.74-6.36A139.59,139.59,0,0,1,130.44,165q-18.85-37.31-35-75.84c-.82-2-1.62-3.93-2.42-5.91a11.92,11.92,0,0,1-.45-1.47,2.69,2.69,0,0,1-.1-.7A1.35,1.35,0,0,1,94,79.57Zm.16.88c-.68,0-1,.32-.75.75a4.69,4.69,0,0,0,.55.91,16.71,16.71,0,0,0,1.24,1.43,15.64,15.64,0,0,1,2.39,3.22c.57,1,1.16,2,1.7,3,2.13,4,4.29,8,6.34,12q9.66,19.06,19.25,38.15a301.18,301.18,0,0,0,14.65,26.51q2.79,4.4,5.67,8.73c.77,1.15,1.64,2.23,2.5,3.31a10.59,10.59,0,0,0,1.32,1.36c.82.71,1.21.7,2,0a10.61,10.61,0,0,0,1.31-1.37c1-1.34,2.09-2.67,3-4.08a241.07,241.07,0,0,0,13.69-22.7c4.92-9.45,9.66-19,14.48-28.48s9.58-18.86,14.41-28.26c1.46-2.84,3.06-5.61,4.62-8.4a12.75,12.75,0,0,1,2.12-2.84c.46-.48.9-1,1.32-1.52a5.35,5.35,0,0,0,.61-1c.18-.38-.07-.7-.5-.72a2.26,2.26,0,0,0-1.33.44c-.79.52-1.57,1.06-2.33,1.62A7.89,7.89,0,0,1,199.2,84,9.63,9.63,0,0,0,195,86a18.15,18.15,0,0,0-3.31,3.36c-1.14,1.52-2.29,3-3.35,4.59-2.72,4-5.4,8.07-8.08,12.12-5.37,8.13-10.74,16.27-16.42,24.19-2.35,3.27-4.7,6.54-7.29,9.62-1.09,1.3-2.26,2.54-3.44,3.76a16.49,16.49,0,0,1-1.82,1.5,1.87,1.87,0,0,1-2.5,0,18.27,18.27,0,0,1-1.9-1.6c-1.21-1.24-2.42-2.5-3.5-3.85-1.85-2.31-3.65-4.67-5.4-7.05-5.6-7.64-10.85-15.53-16.08-23.42q-5.13-7.76-10.3-15.47c-1-1.54-2.17-3-3.29-4.49a18.16,18.16,0,0,0-2.78-2.9A10.5,10.5,0,0,0,100.7,84a7.08,7.08,0,0,1-3-1.36c-.53-.41-1.07-.8-1.63-1.18a13.39,13.39,0,0,0-1.21-.73A4.44,4.44,0,0,0,94.16,80.45Z"/><path d="M101.59,85.49a2.14,2.14,0,0,1,1.24.76,35.13,35.13,0,0,1,2.49,2.84q2,2.77,3.91,5.64c3.18,4.86,6.13,9.85,9.09,14.84,6.33,10.64,12.72,21.26,19.26,31.78a81.89,81.89,0,0,0,7.63,10.23c.78.9,1.62,1.74,2.46,2.56a12.56,12.56,0,0,0,1.4,1.1,1.49,1.49,0,0,0,1.86,0,11.33,11.33,0,0,0,1.23-.93c.74-.7,1.49-1.42,2.17-2.18A73.36,73.36,0,0,0,162,142.09q7.05-11.43,14-22.93c3.88-6.41,7.67-12.87,11.58-19.27,1.93-3.16,4-6.23,6.06-9.32a26.35,26.35,0,0,1,3-3.78c.36-.37.74-.71,1.13-1a3.27,3.27,0,0,1,.61-.28,2.82,2.82,0,0,1-.06.77,8.77,8.77,0,0,1-.58,1.29c-4.36,8.14-8.68,16.29-13.1,24.4-6.78,12.43-13.77,24.75-20.87,37a110.64,110.64,0,0,1-8.13,12.21c-1,1.34-2.15,2.62-3.28,3.89a8.89,8.89,0,0,1-1.42,1.24,1.31,1.31,0,0,1-1.93,0,8.58,8.58,0,0,1-1.25-1.08c-.93-1-1.86-2-2.71-3.13a97.37,97.37,0,0,1-7.45-10.81c-2.56-4.31-5-8.66-7.53-13q-13.42-23.48-26-47.39c-.53-1-1.09-2-1.63-3-.24-.45-.46-.91-.66-1.39A5.63,5.63,0,0,1,101.59,85.49Z"/></g><g id="chu_VINFAST" data-name="chu VINFAST"><path class="cls-1" d="M215,207h-6.36v3.24h3.83v12.19h4.45V210.23c2.63,0,2.9.09,3.79-.59.68-.66.71-1,.7-3.42C220.19,207.09,217.06,207,215,207Z"/><path class="cls-1" d="M170.92,216.72c-.28,0-.88.13-1,.5,0,0,.14-.45.15-.5.51-1.61,1.44-4.6,1.54-4.89.09.3,1,3.27,1.52,4.89ZM173,207h-4c-1.23,3.89-2.71,8.4-4,12.29-.34,1-.65,2-1,3.14h3c1.11,0,1.11,0,1.54-1.06s.42-1.23,1.86-1.23c1.6,0,2.07.15,2.68-.9l.51-.92c.35,1.35.69,2.72,1.05,4.12h4.81c-.12-.34-3.09-9.57-4.59-14.2A1.78,1.78,0,0,0,173,207Z"/><path class="cls-1" d="M196.56,213.9c-2.17-1-3.9-1.06-3.9-2.33,0-.84.67-1.37,1.79-1.37,1.36,0,2.66.55,2.66,1.47a1.92,1.92,0,0,0,1.86-1.28,2.22,2.22,0,0,0-.91-2.4c-2-1.45-5.2-1.19-7.11-.41a3.89,3.89,0,0,0-2.63,3.82c0,2.16,2.4,3.4,3.3,3.85s2.1,1,2.79,1.33,1.2,1,1.09,1.57-1,.82-1.61.81a6.4,6.4,0,0,1-2.77-.75,10.37,10.37,0,0,1-2.8-2V219c0,1.09,1,1.82,1.94,2.38a7.59,7.59,0,0,0,4,1,6,6,0,0,0,4.23-1.47,4.27,4.27,0,0,0,1.33-3C199.79,216.15,199,215,196.56,213.9Z"/><path class="cls-1" d="M146.07,222.39h4.43v-6h2.34c1.59,0,2.28-.78,2.28-2V213h-4.58v-2.63h5.14V207h-9.61Z"/><path class="cls-1" d="M130.3,213c-2-2.15-4.89-3-5.32-6.07h-4v15.43h3.94V213c0,.57,2.84,2.12,4,3.7a6.16,6.16,0,0,1,1.39,3.05,15.2,15.2,0,0,1,.11,2.62h3.86V207H130.3Z"/><path class="cls-1" d="M108.38,207h-2.7v15.44H110V208.47C110,207.14,109.08,207,108.38,207Z"/><path class="cls-1" d="M90.32,207c.33,3.57-1.79,6.55-2.63,9.8-.73-1.88-2.28-6.5-2.92-8.35-.24-.71-.55-1.44-1.51-1.47-1.21,0-2.43,0-3.65,0,0,.09,0,.15,0,.19,1.86,5,3.84,10.27,5.73,15.24H88.6a1.9,1.9,0,0,0,1.6-1.22c.55-1.5,3-7.93,3.79-10.11A9.59,9.59,0,0,0,94.6,207Z"/></g></g></svg>